<svg width="353" height="133" viewBox="0 0 353 133" fill="none" xmlns="http://www.w3.org/2000/svg">
<path d="M10.4999 6.25C4.5019 12.5087 2.25514 13.0574 -6.32544 10.3923C0.27849 16.494 0.926675 18.7141 -1.50012 27.0346C4.49786 20.7759 6.74462 20.2272 15.3252 22.8923C8.72127 16.7906 8.07308 14.5705 10.4999 6.25Z" fill="#C8BBFF"/>
<path d="M243.5 119C242.096 123.911 240.959 124.844 235 126C240.964 127.156 242.1 128.089 243.5 133C244.904 128.089 246.041 127.156 252 126C246.036 124.844 244.9 123.911 243.5 119Z" fill="white"/>
<path d="M339 7.93774C340.382 12.8105 339.98 14.1195 336.005 17.7499C341.14 16.1203 342.475 16.4265 346 20.0621C344.617 15.1894 345.02 13.8804 348.995 10.2499C343.86 11.8795 342.525 11.5734 339 7.93774Z" fill="#F8F98F"/>
</svg>
